<svg xmlns="http://www.w3.org/2000/svg" viewBox="0 0 1200 360" role="img" aria-labelledby="title desc">
<title>LakeNow</title><desc>Rides Delivery At The Lake</desc>
<defs><linearGradient id="wordblue" x1="0" x2="1" y1="0" y2="0"><stop offset="0" stop-color="#2563EB"/><stop offset="1" stop-color="#00A3FF"/></linearGradient><linearGradient id="waveblue" x1="0" x2="1" y1="0" y2="1"><stop offset="0" stop-color="#2563EB"/><stop offset="1" stop-color="#00A3FF"/></linearGradient></defs>
<g transform="translate(30,26) scale(.62)">
<path d="M112 210C122 102 205 43 303 58c54 8 98 36 126 80-43-54-109-75-178-54-71 22-121 69-139 126Z" fill="url(#waveblue)"/><path d="M47 349C113 235 208 166 347 147c-83 42-143 110-174 208-39-8-82-9-126-6Z" fill="#08111D"/><path d="M73 335C132 240 217 184 330 165c-67 40-119 103-148 188-35-8-71-13-109-18Z" fill="#F8FAFC"/><path d="M112 338c53-76 118-121 198-144-48 39-85 91-109 156-29-7-59-11-89-12Z" fill="#101827"/><path d="M165 303c21-23 43-43 67-60" stroke="#F8FAFC" stroke-width="10" stroke-linecap="round" stroke-dasharray="26 24" fill="none"/><path d="M150 350c67-58 134-84 202-78 45 4 80 20 113 48-78-4-137 13-186 42-43 25-83 30-129-12Z" fill="url(#waveblue)"/><path d="M181 391c60-45 121-63 182-55 39 5 71 19 100 42-68-1-122 15-165 38-42 22-78 18-117-25Z" fill="#1D4ED8"/><path d="M217 425c46-27 95-36 146-25 26 6 49 16 70 33-52-2-94 9-132 26-32 15-59 4-84-34Z" fill="#38BDF8"/>
</g>
<g transform="translate(365,122)"><text x="0" y="0" font-family="Arial Black, Arial, sans-serif" font-size="106" font-weight="900" font-style="italic" letter-spacing="-5"><tspan fill="#F8FAFC">LAKE</tspan><tspan fill="url(#wordblue)">NOW</tspan></text><line x1="0" y1="58" x2="60" y2="58" stroke="#2563EB" stroke-width="7" stroke-linecap="round"/><text x="82" y="72" font-family="Arial, sans-serif" font-size="30" font-weight="800" letter-spacing="6" fill="#F8FAFC">RIDES</text><circle cx="218" cy="62" r="6" fill="#2563EB"/><text x="240" y="72" font-family="Arial, sans-serif" font-size="30" font-weight="800" letter-spacing="5" fill="#F8FAFC">DELIVERY</text><circle cx="455" cy="62" r="6" fill="#2563EB"/><text x="477" y="72" font-family="Arial, sans-serif" font-size="30" font-weight="800" letter-spacing="5" fill="#2563EB">AT THE LAKE</text><line x1="745" y1="58" x2="805" y2="58" stroke="#2563EB" stroke-width="7" stroke-linecap="round"/></g>
</svg>
